<svg xmlns="http://www.w3.org/2000/svg" version="1.1" width="267" height="79">
<path d="M 4.774902 53.980957 L 5.795410 53.980957 L 1.573730 63.020508 L 0.547852 63.020508 Z " fill="rgb(0, 0, 0)" fill-opacity="1.000000" />
<path d="M 74.774902 66.980957 L 75.795410 66.980957 L 71.573730 76.020508 L 70.547852 76.020508 Z " fill="rgb(0, 0, 0)" fill-opacity="1.000000" />
<path d="M 83.574219 76.020508 L 83.574219 76.933594 L 77.000000 76.933594 L 77.000000 76.020508 Z " fill="rgb(0, 0, 0)" fill-opacity="1.000000" />
<path d="M 88.774902 66.980957 L 89.795410 66.980957 L 85.573730 76.020508 L 84.547852 76.020508 Z " fill="rgb(0, 0, 0)" fill-opacity="1.000000" />
<path d="M 13.574219 63.020508 L 13.574219 63.933594 L 7.000000 63.933594 L 7.000000 63.020508 Z " fill="rgb(0, 0, 0)" fill-opacity="1.000000" />
<path d="M 16.089355 59.830078 L 17.979980 59.830078 L 17.979980 62.000000 L 16.089355 62.000000 Z " fill="rgb(0, 0, 0)" fill-opacity="1.000000" />
<path d="M 27.574219 63.020508 L 27.574219 63.933594 L 21.000000 63.933594 L 21.000000 63.020508 Z " fill="rgb(0, 0, 0)" fill-opacity="1.000000" />
<path d="M 34.574219 63.020508 L 34.574219 63.933594 L 28.000000 63.933594 L 28.000000 63.020508 Z " fill="rgb(0, 0, 0)" fill-opacity="1.000000" />
<path d="M 41.574219 63.020508 L 41.574219 63.933594 L 35.000000 63.933594 L 35.000000 63.020508 Z " fill="rgb(0, 0, 0)" fill-opacity="1.000000" />
<path d="M 46.774902 53.980957 L 47.795410 53.980957 L 43.573730 63.020508 L 42.547852 63.020508 Z " fill="rgb(0, 0, 0)" fill-opacity="1.000000" />
<path d="M 55.574219 63.020508 L 55.574219 63.933594 L 49.000000 63.933594 L 49.000000 63.020508 Z " fill="rgb(0, 0, 0)" fill-opacity="1.000000" />
<path d="M 60.774902 53.980957 L 61.795410 53.980957 L 57.573730 63.020508 L 56.547852 63.020508 Z " fill="rgb(0, 0, 0)" fill-opacity="1.000000" />
<path d="M 81.774902 53.980957 L 82.795410 53.980957 L 78.573730 63.020508 L 77.547852 63.020508 Z " fill="rgb(0, 0, 0)" fill-opacity="1.000000" />
<path d="M 93.089355 59.830078 L 94.979980 59.830078 L 94.979980 62.000000 L 93.089355 62.000000 Z " fill="rgb(0, 0, 0)" fill-opacity="1.000000" />
<path d="M 104.574219 63.020508 L 104.574219 63.933594 L 98.000000 63.933594 L 98.000000 63.020508 Z " fill="rgb(0, 0, 0)" fill-opacity="1.000000" />
<path d="M 111.574219 63.020508 L 111.574219 63.933594 L 105.000000 63.933594 L 105.000000 63.020508 Z " fill="rgb(0, 0, 0)" fill-opacity="1.000000" />
<path d="M 118.574219 63.020508 L 118.574219 63.933594 L 112.000000 63.933594 L 112.000000 63.020508 Z " fill="rgb(0, 0, 0)" fill-opacity="1.000000" />
<path d="M 123.774902 53.980957 L 124.795410 53.980957 L 120.573730 63.020508 L 119.547852 63.020508 Z " fill="rgb(0, 0, 0)" fill-opacity="1.000000" />
<path d="M 127.573730 53.980957 L 131.795410 63.020508 L 130.774902 63.020508 L 126.547852 53.980957 Z " fill="rgb(0, 0, 0)" fill-opacity="1.000000" />
<path d="M 139.574219 63.020508 L 139.574219 63.933594 L 133.000000 63.933594 L 133.000000 63.020508 Z " fill="rgb(0, 0, 0)" fill-opacity="1.000000" />
<path d="M 146.574219 63.020508 L 146.574219 63.933594 L 140.000000 63.933594 L 140.000000 63.020508 Z " fill="rgb(0, 0, 0)" fill-opacity="1.000000" />
<path d="M 153.574219 63.020508 L 153.574219 63.933594 L 147.000000 63.933594 L 147.000000 63.020508 Z " fill="rgb(0, 0, 0)" fill-opacity="1.000000" />
<path d="M 158.774902 53.980957 L 159.795410 53.980957 L 155.573730 63.020508 L 154.547852 63.020508 Z " fill="rgb(0, 0, 0)" fill-opacity="1.000000" />
<path d="M 179.774902 53.980957 L 180.795410 53.980957 L 176.573730 63.020508 L 175.547852 63.020508 Z " fill="rgb(0, 0, 0)" fill-opacity="1.000000" />
<path d="M 188.574219 63.020508 L 188.574219 63.933594 L 182.000000 63.933594 L 182.000000 63.020508 Z " fill="rgb(0, 0, 0)" fill-opacity="1.000000" />
<path d="M 193.774902 53.980957 L 194.795410 53.980957 L 190.573730 63.020508 L 189.547852 63.020508 Z " fill="rgb(0, 0, 0)" fill-opacity="1.000000" />
<path d="M 214.774902 53.980957 L 215.795410 53.980957 L 211.573730 63.020508 L 210.547852 63.020508 Z " fill="rgb(0, 0, 0)" fill-opacity="1.000000" />
<path d="M 223.574219 63.020508 L 223.574219 63.933594 L 217.000000 63.933594 L 217.000000 63.020508 Z " fill="rgb(0, 0, 0)" fill-opacity="1.000000" />
<path d="M 230.574219 63.020508 L 230.574219 63.933594 L 224.000000 63.933594 L 224.000000 63.020508 Z " fill="rgb(0, 0, 0)" fill-opacity="1.000000" />
<path d="M 237.574219 63.020508 L 237.574219 63.933594 L 231.000000 63.933594 L 231.000000 63.020508 Z " fill="rgb(0, 0, 0)" fill-opacity="1.000000" />
<path d="M 244.574219 63.020508 L 244.574219 63.933594 L 238.000000 63.933594 L 238.000000 63.020508 Z " fill="rgb(0, 0, 0)" fill-opacity="1.000000" />
<path d="M 249.774902 53.980957 L 250.795410 53.980957 L 246.573730 63.020508 L 245.547852 63.020508 Z " fill="rgb(0, 0, 0)" fill-opacity="1.000000" />
<path d="M 11.774902 40.980957 L 12.795410 40.980957 L 8.573730 50.020508 L 7.547852 50.020508 Z " fill="rgb(0, 0, 0)" fill-opacity="1.000000" />
<path d="M 25.774902 40.980957 L 26.795410 40.980957 L 22.573730 50.020508 L 21.547852 50.020508 Z " fill="rgb(0, 0, 0)" fill-opacity="1.000000" />
<path d="M 34.574219 50.020508 L 34.574219 50.933594 L 28.000000 50.933594 L 28.000000 50.020508 Z " fill="rgb(0, 0, 0)" fill-opacity="1.000000" />
<path d="M 39.774902 40.980957 L 40.795410 40.980957 L 36.573730 50.020508 L 35.547852 50.020508 Z " fill="rgb(0, 0, 0)" fill-opacity="1.000000" />
<path d="M 53.774902 40.980957 L 54.795410 40.980957 L 50.573730 50.020508 L 49.547852 50.020508 Z " fill="rgb(0, 0, 0)" fill-opacity="1.000000" />
<path d="M 67.774902 40.980957 L 68.795410 40.980957 L 64.573730 50.020508 L 63.547852 50.020508 Z " fill="rgb(0, 0, 0)" fill-opacity="1.000000" />
<path d="M 88.774902 40.980957 L 89.795410 40.980957 L 85.573730 50.020508 L 84.547852 50.020508 Z " fill="rgb(0, 0, 0)" fill-opacity="1.000000" />
<path d="M 102.774902 40.980957 L 103.795410 40.980957 L 99.573730 50.020508 L 98.547852 50.020508 Z " fill="rgb(0, 0, 0)" fill-opacity="1.000000" />
<path d="M 111.574219 50.020508 L 111.574219 50.933594 L 105.000000 50.933594 L 105.000000 50.020508 Z " fill="rgb(0, 0, 0)" fill-opacity="1.000000" />
<path d="M 116.774902 40.980957 L 117.795410 40.980957 L 113.573730 50.020508 L 112.547852 50.020508 Z " fill="rgb(0, 0, 0)" fill-opacity="1.000000" />
<path d="M 130.774902 40.980957 L 131.795410 40.980957 L 127.573730 50.020508 L 126.547852 50.020508 Z " fill="rgb(0, 0, 0)" fill-opacity="1.000000" />
<path d="M 144.774902 40.980957 L 145.795410 40.980957 L 141.573730 50.020508 L 140.547852 50.020508 Z " fill="rgb(0, 0, 0)" fill-opacity="1.000000" />
<path d="M 153.574219 50.020508 L 153.574219 50.933594 L 147.000000 50.933594 L 147.000000 50.020508 Z " fill="rgb(0, 0, 0)" fill-opacity="1.000000" />
<path d="M 160.574219 50.020508 L 160.574219 50.933594 L 154.000000 50.933594 L 154.000000 50.020508 Z " fill="rgb(0, 0, 0)" fill-opacity="1.000000" />
<path d="M 186.774902 40.980957 L 187.795410 40.980957 L 183.573730 50.020508 L 182.547852 50.020508 Z " fill="rgb(0, 0, 0)" fill-opacity="1.000000" />
<path d="M 200.774902 40.980957 L 201.795410 40.980957 L 197.573730 50.020508 L 196.547852 50.020508 Z " fill="rgb(0, 0, 0)" fill-opacity="1.000000" />
<path d="M 221.592285 40.116211 Q 220.877930 41.340820 220.526123 42.557373 Q 220.174316 43.773926 220.174316 45.009277 Q 220.174316 46.239258 220.526123 47.458496 Q 220.877930 48.677734 221.592285 49.913086 L 220.732910 49.913086 Q 219.921875 48.634766 219.524414 47.423584 Q 219.126953 46.212402 219.126953 45.009277 Q 219.126953 43.811523 219.524414 42.597656 Q 219.921875 41.383789 220.732910 40.116211 Z " fill="rgb(0, 0, 0)" fill-opacity="1.000000" />
<path d="M 230.574219 50.020508 L 230.574219 50.933594 L 224.000000 50.933594 L 224.000000 50.020508 Z " fill="rgb(0, 0, 0)" fill-opacity="1.000000" />
<path d="M 237.574219 50.020508 L 237.574219 50.933594 L 231.000000 50.933594 L 231.000000 50.020508 Z " fill="rgb(0, 0, 0)" fill-opacity="1.000000" />
<path d="M 253.869141 40.116211 L 254.728516 40.116211 Q 255.539551 41.383789 255.937012 42.597656 Q 256.334473 43.811523 256.334473 45.009277 Q 256.334473 46.217773 255.937012 47.431641 Q 255.539551 48.645508 254.728516 49.913086 L 253.869141 49.913086 Q 254.583496 48.666992 254.935303 47.447754 Q 255.287109 46.228516 255.287109 45.009277 Q 255.287109 43.784668 254.935303 42.565430 Q 254.583496 41.346191 253.869141 40.116211 Z " fill="rgb(0, 0, 0)" fill-opacity="1.000000" />
<path d="M 18.774902 27.980957 L 19.795410 27.980957 L 15.573730 37.020508 L 14.547852 37.020508 Z " fill="rgb(0, 0, 0)" fill-opacity="1.000000" />
<path d="M 34.574219 37.020508 L 34.574219 37.933594 L 28.000000 37.933594 L 28.000000 37.020508 Z " fill="rgb(0, 0, 0)" fill-opacity="1.000000" />
<path d="M 41.574219 37.020508 L 41.574219 37.933594 L 35.000000 37.933594 L 35.000000 37.020508 Z " fill="rgb(0, 0, 0)" fill-opacity="1.000000" />
<path d="M 50.573730 27.980957 L 54.795410 37.020508 L 53.774902 37.020508 L 49.547852 27.980957 Z " fill="rgb(0, 0, 0)" fill-opacity="1.000000" />
<path d="M 60.774902 27.980957 L 61.795410 27.980957 L 57.573730 37.020508 L 56.547852 37.020508 Z " fill="rgb(0, 0, 0)" fill-opacity="1.000000" />
<path d="M 76.574219 37.020508 L 76.574219 37.933594 L 70.000000 37.933594 L 70.000000 37.020508 Z " fill="rgb(0, 0, 0)" fill-opacity="1.000000" />
<path d="M 83.574219 37.020508 L 83.574219 37.933594 L 77.000000 37.933594 L 77.000000 37.020508 Z " fill="rgb(0, 0, 0)" fill-opacity="1.000000" />
<path d="M 90.574219 37.020508 L 90.574219 37.933594 L 84.000000 37.933594 L 84.000000 37.020508 Z " fill="rgb(0, 0, 0)" fill-opacity="1.000000" />
<path d="M 95.774902 27.980957 L 96.795410 27.980957 L 92.573730 37.020508 L 91.547852 37.020508 Z " fill="rgb(0, 0, 0)" fill-opacity="1.000000" />
<path d="M 111.574219 37.020508 L 111.574219 37.933594 L 105.000000 37.933594 L 105.000000 37.020508 Z " fill="rgb(0, 0, 0)" fill-opacity="1.000000" />
<path d="M 118.574219 37.020508 L 118.574219 37.933594 L 112.000000 37.933594 L 112.000000 37.020508 Z " fill="rgb(0, 0, 0)" fill-opacity="1.000000" />
<path d="M 127.573730 27.980957 L 131.795410 37.020508 L 130.774902 37.020508 L 126.547852 27.980957 Z " fill="rgb(0, 0, 0)" fill-opacity="1.000000" />
<path d="M 137.774902 27.980957 L 138.795410 27.980957 L 134.573730 37.020508 L 133.547852 37.020508 Z " fill="rgb(0, 0, 0)" fill-opacity="1.000000" />
<path d="M 153.574219 37.020508 L 153.574219 37.933594 L 147.000000 37.933594 L 147.000000 37.020508 Z " fill="rgb(0, 0, 0)" fill-opacity="1.000000" />
<path d="M 160.574219 37.020508 L 160.574219 37.933594 L 154.000000 37.933594 L 154.000000 37.020508 Z " fill="rgb(0, 0, 0)" fill-opacity="1.000000" />
<path d="M 167.574219 37.020508 L 167.574219 37.933594 L 161.000000 37.933594 L 161.000000 37.020508 Z " fill="rgb(0, 0, 0)" fill-opacity="1.000000" />
<path d="M 172.774902 27.980957 L 173.795410 27.980957 L 169.573730 37.020508 L 168.547852 37.020508 Z " fill="rgb(0, 0, 0)" fill-opacity="1.000000" />
<path d="M 193.774902 27.980957 L 194.795410 27.980957 L 190.573730 37.020508 L 189.547852 37.020508 Z " fill="rgb(0, 0, 0)" fill-opacity="1.000000" />
<path d="M 209.574219 37.020508 L 209.574219 37.933594 L 203.000000 37.933594 L 203.000000 37.020508 Z " fill="rgb(0, 0, 0)" fill-opacity="1.000000" />
<path d="M 216.574219 37.020508 L 216.574219 37.933594 L 210.000000 37.933594 L 210.000000 37.020508 Z " fill="rgb(0, 0, 0)" fill-opacity="1.000000" />
<path d="M 223.574219 37.020508 L 223.574219 37.933594 L 217.000000 37.933594 L 217.000000 37.020508 Z " fill="rgb(0, 0, 0)" fill-opacity="1.000000" />
<path d="M 228.774902 27.980957 L 229.795410 27.980957 L 225.573730 37.020508 L 224.547852 37.020508 Z " fill="rgb(0, 0, 0)" fill-opacity="1.000000" />
<path d="M 244.574219 37.020508 L 244.574219 37.933594 L 238.000000 37.933594 L 238.000000 37.020508 Z " fill="rgb(0, 0, 0)" fill-opacity="1.000000" />
<path d="M 251.574219 37.020508 L 251.574219 37.933594 L 245.000000 37.933594 L 245.000000 37.020508 Z " fill="rgb(0, 0, 0)" fill-opacity="1.000000" />
<path d="M 258.574219 37.020508 L 258.574219 37.933594 L 252.000000 37.933594 L 252.000000 37.020508 Z " fill="rgb(0, 0, 0)" fill-opacity="1.000000" />
<path d="M 263.774902 27.980957 L 264.795410 27.980957 L 260.573730 37.020508 L 259.547852 37.020508 Z " fill="rgb(0, 0, 0)" fill-opacity="1.000000" />
<path d="M 25.774902 14.980957 L 26.795410 14.980957 L 22.573730 24.020508 L 21.547852 24.020508 Z " fill="rgb(0, 0, 0)" fill-opacity="1.000000" />
<path d="M 39.774902 14.980957 L 40.795410 14.980957 L 36.573730 24.020508 L 35.547852 24.020508 Z " fill="rgb(0, 0, 0)" fill-opacity="1.000000" />
<path d="M 48.574219 24.020508 L 48.574219 24.933594 L 42.000000 24.933594 L 42.000000 24.020508 Z " fill="rgb(0, 0, 0)" fill-opacity="1.000000" />
<path d="M 69.574219 24.020508 L 69.574219 24.933594 L 63.000000 24.933594 L 63.000000 24.020508 Z " fill="rgb(0, 0, 0)" fill-opacity="1.000000" />
<path d="M 76.574219 24.020508 L 76.574219 24.933594 L 70.000000 24.933594 L 70.000000 24.020508 Z " fill="rgb(0, 0, 0)" fill-opacity="1.000000" />
<path d="M 83.574219 24.020508 L 83.574219 24.933594 L 77.000000 24.933594 L 77.000000 24.020508 Z " fill="rgb(0, 0, 0)" fill-opacity="1.000000" />
<path d="M 90.574219 24.020508 L 90.574219 24.933594 L 84.000000 24.933594 L 84.000000 24.020508 Z " fill="rgb(0, 0, 0)" fill-opacity="1.000000" />
<path d="M 97.574219 24.020508 L 97.574219 24.933594 L 91.000000 24.933594 L 91.000000 24.020508 Z " fill="rgb(0, 0, 0)" fill-opacity="1.000000" />
<path d="M 104.574219 24.020508 L 104.574219 24.933594 L 98.000000 24.933594 L 98.000000 24.020508 Z " fill="rgb(0, 0, 0)" fill-opacity="1.000000" />
<path d="M 111.574219 24.020508 L 111.574219 24.933594 L 105.000000 24.933594 L 105.000000 24.020508 Z " fill="rgb(0, 0, 0)" fill-opacity="1.000000" />
<path d="M 118.574219 24.020508 L 118.574219 24.933594 L 112.000000 24.933594 L 112.000000 24.020508 Z " fill="rgb(0, 0, 0)" fill-opacity="1.000000" />
<path d="M 125.574219 24.020508 L 125.574219 24.933594 L 119.000000 24.933594 L 119.000000 24.020508 Z " fill="rgb(0, 0, 0)" fill-opacity="1.000000" />
<path d="M 146.574219 24.020508 L 146.574219 24.933594 L 140.000000 24.933594 L 140.000000 24.020508 Z " fill="rgb(0, 0, 0)" fill-opacity="1.000000" />
<path d="M 153.574219 24.020508 L 153.574219 24.933594 L 147.000000 24.933594 L 147.000000 24.020508 Z " fill="rgb(0, 0, 0)" fill-opacity="1.000000" />
<path d="M 160.574219 24.020508 L 160.574219 24.933594 L 154.000000 24.933594 L 154.000000 24.020508 Z " fill="rgb(0, 0, 0)" fill-opacity="1.000000" />
<path d="M 167.574219 24.020508 L 167.574219 24.933594 L 161.000000 24.933594 L 161.000000 24.020508 Z " fill="rgb(0, 0, 0)" fill-opacity="1.000000" />
<path d="M 174.574219 24.020508 L 174.574219 24.933594 L 168.000000 24.933594 L 168.000000 24.020508 Z " fill="rgb(0, 0, 0)" fill-opacity="1.000000" />
<path d="M 202.574219 24.020508 L 202.574219 24.933594 L 196.000000 24.933594 L 196.000000 24.020508 Z " fill="rgb(0, 0, 0)" fill-opacity="1.000000" />
<path d="M 209.574219 24.020508 L 209.574219 24.933594 L 203.000000 24.933594 L 203.000000 24.020508 Z " fill="rgb(0, 0, 0)" fill-opacity="1.000000" />
<path d="M 216.574219 24.020508 L 216.574219 24.933594 L 210.000000 24.933594 L 210.000000 24.020508 Z " fill="rgb(0, 0, 0)" fill-opacity="1.000000" />
<path d="M 223.574219 24.020508 L 223.574219 24.933594 L 217.000000 24.933594 L 217.000000 24.020508 Z " fill="rgb(0, 0, 0)" fill-opacity="1.000000" />
<path d="M 230.574219 24.020508 L 230.574219 24.933594 L 224.000000 24.933594 L 224.000000 24.020508 Z " fill="rgb(0, 0, 0)" fill-opacity="1.000000" />
<path d="M 237.574219 24.020508 L 237.574219 24.933594 L 231.000000 24.933594 L 231.000000 24.020508 Z " fill="rgb(0, 0, 0)" fill-opacity="1.000000" />
<path d="M 244.574219 24.020508 L 244.574219 24.933594 L 238.000000 24.933594 L 238.000000 24.020508 Z " fill="rgb(0, 0, 0)" fill-opacity="1.000000" />
<path d="M 251.574219 24.020508 L 251.574219 24.933594 L 245.000000 24.933594 L 245.000000 24.020508 Z " fill="rgb(0, 0, 0)" fill-opacity="1.000000" />
<path d="M 258.574219 24.020508 L 258.574219 24.933594 L 252.000000 24.933594 L 252.000000 24.020508 Z " fill="rgb(0, 0, 0)" fill-opacity="1.000000" />
<path d="M 265.574219 24.020508 L 265.574219 24.933594 L 259.000000 24.933594 L 259.000000 24.020508 Z " fill="rgb(0, 0, 0)" fill-opacity="1.000000" />
<path d="M 34.574219 11.020508 L 34.574219 11.933594 L 28.000000 11.933594 L 28.000000 11.020508 Z " fill="rgb(0, 0, 0)" fill-opacity="1.000000" />
<path d="M 41.574219 11.020508 L 41.574219 11.933594 L 35.000000 11.933594 L 35.000000 11.020508 Z " fill="rgb(0, 0, 0)" fill-opacity="1.000000" />
</svg>